<svg width="48" height="20" viewBox="0 0 48 20" fill="none" xmlns="http://www.w3.org/2000/svg">
<path fill-rule="evenodd" clip-rule="evenodd" d="M26.89 3.8335H21.1107C19.0967 3.8335 17.834 5.2595 17.834 7.2775V12.7228C17.834 14.7408 19.09 16.1668 21.1107 16.1668H26.8893C28.91 16.1668 30.1673 14.7408 30.1673 12.7228V7.2775C30.1673 5.2595 28.91 3.8335 26.89 3.8335Z" stroke="#4BAA79" stroke-linecap="round" stroke-linejoin="round"/>
<path d="M21.0142 10.7983C20.5736 10.7983 20.2156 10.4403 20.2156 10.0003C20.2156 9.56033 20.5736 9.20166 21.0142 9.20166C21.4549 9.20166 21.8129 9.56033 21.8129 10.0003C21.8129 10.4403 21.4549 10.7983 21.0142 10.7983Z" fill="#4BAA79"/>
<path d="M24.0006 10.7983C23.5599 10.7983 23.2019 10.4403 23.2019 10.0003C23.2019 9.56033 23.5599 9.20166 24.0006 9.20166C24.4412 9.20166 24.7992 9.56033 24.7992 10.0003C24.7992 10.4403 24.4412 10.7983 24.0006 10.7983Z" fill="#4BAA79"/>
<path d="M26.9862 10.7983C26.5455 10.7983 26.1875 10.4403 26.1875 10.0003C26.1875 9.56033 26.5455 9.20166 26.9862 9.20166C27.4268 9.20166 27.7848 9.56033 27.7848 10.0003C27.7848 10.4403 27.4268 10.7983 26.9862 10.7983Z" fill="#4BAA79"/>
</svg>
